<svg width="50" height="26" viewBox="0 0 50 26" fill="none" xmlns="http://www.w3.org/2000/svg">
<path d="M17.472 10.344C17.6853 9.46933 18.0693 8.68 18.624 7.976C19.1787 7.272 19.8507 6.71733 20.64 6.312C21.4507 5.88533 22.336 5.672 23.296 5.672C24.448 5.672 25.472 5.93867 26.368 6.472C27.264 7.00533 27.968 7.88 28.48 9.096C28.992 10.312 29.248 11.9333 29.248 13.96C29.248 14.9413 29.2053 15.944 29.12 16.968C29.0347 17.9707 28.928 18.9093 28.8 19.784C28.672 20.6373 28.5333 21.352 28.384 21.928C28.128 22.9733 27.648 23.752 26.944 24.264C26.2613 24.776 25.4187 25.032 24.416 25.032C23.456 25.032 22.6987 24.7653 22.144 24.232C21.5893 23.6987 21.312 22.9413 21.312 21.96C21.312 21.5973 21.3653 21.1067 21.472 20.488C21.5787 19.848 21.696 19.1653 21.824 18.44C21.952 17.7147 22.0693 17.0107 22.176 16.328C22.2827 15.624 22.336 15.0373 22.336 14.568C22.336 13.8853 22.208 13.3627 21.952 13C21.7173 12.616 21.376 12.424 20.928 12.424C20.3307 12.424 19.8507 12.808 19.488 13.576C19.1253 14.344 18.9013 15.4533 18.816 16.904C18.752 18.0133 18.6667 18.9947 18.56 19.848C18.4747 20.7013 18.3253 21.416 18.112 21.992C17.8347 22.7813 17.4293 23.3787 16.896 23.784C16.384 24.168 15.6907 24.36 14.816 24.36C13.856 24.36 13.088 24.0933 12.512 23.56C11.936 23.0053 11.6267 22.152 11.584 21C11.5627 20.36 11.552 19.6027 11.552 18.728C11.5733 17.8533 11.584 16.9893 11.584 16.136C11.6053 15.2827 11.5947 14.5787 11.552 14.024C11.5093 13.2347 11.3493 12.6587 11.072 12.296C10.816 11.912 10.4427 11.72 9.952 11.72C9.41867 11.72 9.00267 11.9973 8.704 12.552C8.40533 13.1067 8.20267 13.8853 8.096 14.888C8.07467 15.3787 8.064 15.9867 8.064 16.712C8.064 17.4373 8.064 18.1627 8.064 18.888C8.08533 19.592 8.08533 20.1893 8.064 20.68C8.02133 22.216 7.70133 23.3147 7.104 23.976C6.50667 24.6373 5.67467 24.968 4.608 24.968C3.41333 24.968 2.528 24.6373 1.952 23.976C1.376 23.3147 1.024 22.248 0.896 20.776C0.810667 19.944 0.746667 19.112 0.704 18.28C0.661333 17.448 0.64 16.616 0.64 15.784C0.64 14.952 0.672 14.0667 0.736 13.128C0.8 12.168 0.874667 11.2613 0.96 10.408C1.13067 8.97867 1.472 7.79467 1.984 6.856C2.51733 5.896 3.37067 5.416 4.544 5.416C5.61067 5.416 6.37867 5.72533 6.848 6.344C7.31733 6.94133 7.552 7.86933 7.552 9.128C7.552 9.55467 7.52 9.94933 7.456 10.312L7.36 9.672C7.78667 8.28533 8.50133 7.208 9.504 6.44C10.5067 5.65067 11.616 5.256 12.832 5.256C14.3893 5.256 15.6053 5.74667 16.48 6.728C17.3547 7.688 17.8347 9.02133 17.92 10.728L17.472 10.344ZM34.003 25.32C33.2777 25.32 32.659 25.128 32.147 24.744C31.6563 24.36 31.315 23.7733 31.123 22.984C30.9523 22.152 30.803 21.0747 30.675 19.752C30.5683 18.408 30.515 16.9787 30.515 15.464C30.515 14.632 30.5257 13.6827 30.547 12.616C30.5897 11.5493 30.643 10.472 30.707 9.384C30.7923 8.296 30.8777 7.28267 30.963 6.344C31.0483 5.384 31.1337 4.60533 31.219 4.008C31.4323 2.77067 31.827 1.8 32.403 1.096C33.0003 0.370666 33.8537 0.00799942 34.963 0.00799942C36.1577 0.00799942 37.0323 0.391999 37.587 1.16C38.1417 1.90667 38.419 2.824 38.419 3.912C38.419 4.85067 38.3443 5.96 38.195 7.24C38.067 8.52 37.8643 9.82133 37.587 11.144L37.203 10.952C37.4377 10.0347 37.8003 9.21333 38.291 8.488C38.7817 7.74133 39.411 7.15467 40.179 6.728C40.947 6.28 41.8643 6.056 42.931 6.056C44.9577 6.056 46.5577 6.80267 47.731 8.296C48.9257 9.768 49.523 12.072 49.523 15.208C49.523 17.4053 49.1923 19.24 48.531 20.712C47.8697 22.184 46.963 23.2933 45.811 24.04C44.659 24.7653 43.347 25.128 41.875 25.128C40.5097 25.128 39.3683 24.7333 38.451 23.944C37.5337 23.1547 36.9363 22.0133 36.659 20.52L37.331 20.872C37.075 22.408 36.6697 23.5387 36.115 24.264C35.5817 24.968 34.8777 25.32 34.003 25.32ZM40.019 19.752C40.7017 19.752 41.2883 19.4107 41.779 18.728C42.291 18.0453 42.547 16.9787 42.547 15.528C42.547 14.376 42.3443 13.4373 41.939 12.712C41.555 11.9867 40.8937 11.624 39.955 11.624C39.187 11.624 38.5683 11.944 38.099 12.584C37.6297 13.224 37.395 14.1947 37.395 15.496C37.395 16.7333 37.6297 17.7573 38.099 18.568C38.5897 19.3573 39.2297 19.752 40.019 19.752Z" fill="#222222"/>
</svg>
